<?xml version="1.0" standalone="no"?>
<!DOCTYPE svg PUBLIC "-//W3C//DTD SVG 1.1//EN" "http://www.w3.org/Graphics/SVG/1.1/DTD/svg11.dtd">
<svg xmlns="http://www.w3.org/2000/svg" width="387" height="109" viewBox="0 0 387 109" fill="none">
<path d="M211.124 56.2618C207.34 56.2618 204.345 55.4738 202.138 53.8978C199.976 52.3219 198.422 50.1155 197.476 47.2788C196.575 44.3971 196.125 41.0875 196.125 37.3503V18.9791C196.125 15.1067 196.62 11.7522 197.611 8.91543C198.602 6.0787 200.291 3.89487 202.678 2.36394C205.111 0.787979 208.399 0 212.542 0C216.596 0 219.771 0.67541 222.068 2.02623C224.411 3.37706 226.077 5.2457 227.068 7.63215C228.059 10.0186 228.554 12.8103 228.554 16.0073V19.5194H216.731V15.0617C216.731 13.891 216.641 12.8103 216.461 11.8197C216.326 10.8291 215.965 10.0411 215.38 9.45576C214.839 8.82538 213.939 8.51018 212.677 8.51018C211.371 8.51018 210.425 8.8704 209.84 9.59084C209.254 10.2663 208.871 11.1218 208.691 12.1574C208.556 13.193 208.489 14.2737 208.489 15.3994V40.7273C208.489 41.9431 208.601 43.0913 208.826 44.1719C209.097 45.2075 209.547 46.0631 210.178 46.7385C210.853 47.3689 211.799 47.6841 213.015 47.6841C214.276 47.6841 215.245 47.3464 215.92 46.6709C216.596 45.9955 217.069 45.1175 217.339 44.0368C217.609 42.9562 217.744 41.808 217.744 40.5922V34.1758H212.813V27.084H228.622V55.4513H220.65L219.974 50.926C219.253 52.457 218.195 53.7403 216.799 54.7759C215.402 55.7665 213.511 56.2618 211.124 56.2618Z" fill="white"/>
<mask id="mask0_263_2631" style="mask-type:alpha" maskUnits="userSpaceOnUse" x="29" y="0" width="167" height="50">
<path d="M29.9595 0H195.569V49.0861H29.9595V0Z" fill="#37AAE7"/>
</mask>
<g mask="url(#mask0_263_2631)">
<path d="M164.179 55.5404V0.832031H172.691L183.907 27.1731V0.832031H193.906V55.5404H185.731L174.516 27.1731V55.5404H164.179Z" fill="white"/>
<path d="M149.866 55.5404V0.832031H161.96V55.5404H149.866Z" fill="white"/>
<path d="M117.92 55.5404V0.832031H126.433L137.648 27.1731V0.832031H147.647V55.5404H139.472L128.257 27.1731V55.5404H117.92Z" fill="white"/>
<path d="M103.607 55.5404V0.832031H115.701V55.5404H103.607Z" fill="white"/>
<path d="M67.0674 55.5404L77.4042 0.832031H91.1866L101.388 55.5404H90.2408L88.4166 43.9908H80.3769L78.4852 55.5404H67.0674ZM81.4579 36.7639H87.2681L84.363 15.4209L81.4579 36.7639Z" fill="white"/>
<path d="M30.7974 55.5404V0.832031H45.8635C49.5568 0.832031 52.7547 1.23728 55.4571 2.04777C58.1595 2.85827 60.2539 4.32166 61.7403 6.43795C63.2717 8.50921 64.0373 11.4585 64.0373 15.2858C64.0373 17.5372 63.8572 19.5409 63.4969 21.297C63.1365 23.0531 62.4609 24.584 61.47 25.8898C60.5242 27.1506 59.1504 28.2087 57.3488 29.0642L64.8481 55.5404H52.3493L46.3364 31.0229H42.8908V55.5404H30.7974ZM42.8908 24.0662H46.2688C47.9804 24.0662 49.3091 23.7735 50.2549 23.1882C51.2008 22.5578 51.8538 21.6797 52.2142 20.5541C52.6195 19.3833 52.8222 17.9875 52.8222 16.3665C52.8222 14.0251 52.3943 12.2015 51.5386 10.8957C50.6828 9.58987 49.1064 8.93697 46.8093 8.93697H42.8908V24.0662Z" fill="white"/>
</g>
<path d="M8.24243 55.5404V9.81501H0V0.832031H28.5783V9.81501H20.4034V55.5404H8.24243Z" fill="white"/>
<path fill-rule="evenodd" clip-rule="evenodd" d="M23.5183 54.3067C23.5183 53.0985 23.5183 51.8894 23.5183 50.6855C50.2596 50.6855 77.0009 50.6855 103.742 50.6855C103.742 51.8894 103.742 53.0987 103.742 54.3067C77.0009 54.3067 50.2596 54.3067 23.5183 54.3067Z" fill="white"/>
<path fill-rule="evenodd" clip-rule="evenodd" d="M23.5183 55.5164C23.5183 54.3465 23.5183 53.1736 23.5183 52.0039C50.2596 52.0039 77.0009 52.0039 103.742 52.0039C103.742 53.1736 103.742 54.3467 103.742 55.5164C77.0009 55.5164 50.2596 55.5164 23.5183 55.5164Z" fill="white"/>
<path fill-rule="evenodd" clip-rule="evenodd" d="M23.5183 56.7534C23.5183 55.6166 23.5183 54.4831 23.5183 53.3496C50.2596 53.3496 77.0009 53.3496 103.742 53.3496C103.742 54.4831 103.742 55.6166 103.742 56.7534C77.0009 56.7534 50.2596 56.7534 23.5183 56.7534Z" fill="white"/>
<path fill-rule="evenodd" clip-rule="evenodd" d="M23.5183 58.013C23.5183 56.9126 23.5183 55.8153 23.5183 54.7148C50.2596 54.7148 77.0009 54.7148 103.742 54.7148C103.742 55.8153 103.742 56.9126 103.742 58.013C77.0009 58.013 50.2596 58.013 23.5183 58.013Z" fill="white"/>
<path fill-rule="evenodd" clip-rule="evenodd" d="M23.5183 59.3005C23.5183 58.2363 23.5183 57.1753 23.5183 56.1123C50.2596 56.1123 77.0009 56.1123 103.742 56.1123C103.742 57.1755 103.742 58.2365 103.742 59.3005C77.0009 59.3005 50.2596 59.3005 23.5183 59.3005Z" fill="white"/>
<path fill-rule="evenodd" clip-rule="evenodd" d="M23.5183 60.6116C23.5183 59.5868 23.5183 58.56 23.5183 57.5352C50.2596 57.5352 77.0009 57.5352 103.742 57.5352C103.742 58.56 103.742 59.5868 103.742 60.6116C77.0009 60.6116 50.2596 60.6116 23.5183 60.6116Z" fill="white"/>
<path fill-rule="evenodd" clip-rule="evenodd" d="M23.5183 61.9573C23.5183 60.9656 23.5183 59.9738 23.5183 58.9854C50.2596 58.9854 77.0009 58.9854 103.742 58.9854C103.742 59.9738 103.742 60.9656 103.742 61.9573C77.0009 61.9573 50.2596 61.9573 23.5183 61.9573Z" fill="white"/>
<path fill-rule="evenodd" clip-rule="evenodd" d="M23.5183 63.3328C23.5183 62.3774 23.5183 61.4219 23.5183 60.4697C50.2596 60.4697 77.0009 60.4697 103.742 60.4697C103.742 61.422 103.742 62.3774 103.742 63.3328C77.0009 63.3328 50.2596 63.3328 23.5183 63.3328Z" fill="white"/>
<path fill-rule="evenodd" clip-rule="evenodd" d="M23.5183 64.7357C23.5183 63.8198 23.5183 62.9005 23.5183 61.9824C50.2596 61.9824 77.0009 61.9824 103.742 61.9824C103.742 62.9005 103.742 63.8198 103.742 64.7357C77.0009 64.7357 50.2596 64.7357 23.5183 64.7357Z" fill="white"/>
<path fill-rule="evenodd" clip-rule="evenodd" d="M23.5183 66.1741C23.5183 65.2912 23.5183 64.4092 23.5183 63.5264C50.2596 63.5264 77.0009 63.5264 103.742 63.5264C103.742 64.4092 103.742 65.2912 103.742 66.1741C77.0009 66.1741 50.2596 66.1741 23.5183 66.1741Z" fill="white"/>
<path fill-rule="evenodd" clip-rule="evenodd" d="M23.5183 67.6464C23.5183 66.7997 23.5183 65.953 23.5183 65.1074C50.2596 65.1074 77.0009 65.1074 103.742 65.1074C103.742 65.953 103.742 66.7997 103.742 67.6464C77.0009 67.6464 50.2596 67.6464 23.5183 67.6464Z" fill="white"/>
<path fill-rule="evenodd" clip-rule="evenodd" d="M23.5183 69.1517C23.5183 68.3444 23.5183 67.5319 23.5183 66.7246C50.2596 66.7246 77.0009 66.7246 103.749 66.7246C103.749 67.5319 103.749 68.3444 103.749 69.1517C77.0009 69.1517 50.2596 69.1517 23.5183 69.1517Z" fill="white"/>
<path fill-rule="evenodd" clip-rule="evenodd" d="M23.5183 70.6992C23.5183 69.925 23.5183 69.1508 23.5183 68.3799C50.2596 68.3799 77.0009 68.3799 103.749 68.3799C103.749 69.1508 103.749 69.925 103.749 70.6992C77.0009 70.6992 50.2596 70.6992 23.5183 70.6992Z" fill="white"/>
<path fill-rule="evenodd" clip-rule="evenodd" d="M23.5183 72.2829C23.5183 71.5451 23.5183 70.8082 23.5183 70.0703C50.2596 70.0703 77.0009 70.0703 103.749 70.0703C103.749 70.8082 103.749 71.5451 103.749 72.2829C77.0009 72.2829 50.2596 72.2829 23.5183 72.2829Z" fill="white"/>
<path fill-rule="evenodd" clip-rule="evenodd" d="M23.5183 73.9118C23.5183 73.2102 23.5183 72.5096 23.5183 71.8047C50.2596 71.8047 77.0009 71.8047 103.749 71.8047C103.749 72.5096 103.749 73.2102 103.749 73.9118C77.0009 73.9118 50.2596 73.9118 23.5183 73.9118Z" fill="white"/>
<path fill-rule="evenodd" clip-rule="evenodd" d="M23.5183 75.5831C23.5183 74.9157 23.5183 74.2502 23.5183 73.5859C50.2596 73.5859 77.0009 73.5859 103.749 73.5859C103.749 74.2503 103.749 74.9157 103.749 75.5831C77.0009 75.5831 50.2596 75.5831 23.5183 75.5831Z" fill="white"/>
<path fill-rule="evenodd" clip-rule="evenodd" d="M23.5183 77.2952C23.5183 76.6661 23.5183 76.038 23.5183 75.4121C50.2596 75.4121 77.0009 75.4121 103.749 75.4121C103.749 76.038 103.749 76.6661 103.749 77.2952C77.0009 77.2952 50.2596 77.2952 23.5183 77.2952Z" fill="white"/>
<path fill-rule="evenodd" clip-rule="evenodd" d="M23.5183 79.0598C23.5183 78.4679 23.5183 77.8751 23.5183 77.2832C50.2596 77.2832 77.0009 77.2832 103.749 77.2832C103.749 77.8751 103.749 78.4679 103.749 79.0598C77.0009 79.0598 50.2596 79.0598 23.5183 79.0598Z" fill="white"/>
<path fill-rule="evenodd" clip-rule="evenodd" d="M23.5183 80.8761C23.5183 80.3163 23.5183 79.7607 23.5183 79.2041C50.2596 79.2041 77.0009 79.2041 103.749 79.2041C103.749 79.7607 103.749 80.3163 103.749 80.8761C77.0009 80.8761 50.2596 80.8761 23.5183 80.8761Z" fill="white"/>
<path fill-rule="evenodd" clip-rule="evenodd" d="M23.5183 82.7478C23.5183 82.2242 23.5183 81.7049 23.5183 81.1846C50.2596 81.1846 77.0009 81.1846 103.749 81.1846C103.749 81.7049 103.749 82.2242 103.749 82.7478C77.0009 82.7478 50.2596 82.7478 23.5183 82.7478Z" fill="white"/>
<path fill-rule="evenodd" clip-rule="evenodd" d="M23.5183 84.6761C23.5183 84.1898 23.5183 83.7024 23.5183 83.2227C50.2596 83.2227 77.0009 83.2227 103.749 83.2227C103.749 83.7024 103.749 84.1898 103.749 84.6761C77.0009 84.6761 50.2596 84.6761 23.5183 84.6761Z" fill="white"/>
<path fill-rule="evenodd" clip-rule="evenodd" d="M23.5183 86.6611C23.5183 86.2112 23.5183 85.7643 23.5183 85.3164C50.2596 85.3164 77.0009 85.3164 103.749 85.3164C103.749 85.7643 103.749 86.211 103.749 86.6611C77.0009 86.6611 50.2596 86.6611 23.5183 86.6611Z" fill="white"/>
<path fill-rule="evenodd" clip-rule="evenodd" d="M23.5183 88.7144C23.5183 88.3039 23.5183 87.889 23.5183 87.4785C50.2596 87.4785 77.0009 87.4785 103.749 87.4785C103.749 87.889 103.749 88.3039 103.749 88.7144C77.0009 88.7144 50.2596 88.7144 23.5183 88.7144Z" fill="white"/>
<path fill-rule="evenodd" clip-rule="evenodd" d="M23.5183 90.8393C23.5183 90.4618 23.5183 90.0832 23.5183 89.709C50.2596 89.709 77.0009 89.709 103.749 89.709C103.749 90.0833 103.749 90.4618 103.749 90.8393C77.0009 90.8393 50.2596 90.8393 23.5183 90.8393Z" fill="white"/>
<path fill-rule="evenodd" clip-rule="evenodd" d="M23.5183 93.034C23.5183 92.6949 23.5183 92.3536 23.5183 92.0156C50.2596 92.0156 77.0009 92.0156 103.749 92.0156C103.749 92.3536 103.749 92.6949 103.749 93.034C77.0009 93.034 50.2596 93.034 23.5183 93.034Z" fill="white"/>
<path fill-rule="evenodd" clip-rule="evenodd" d="M23.5183 95.309C23.5183 95.0041 23.5183 94.7023 23.5183 94.3994C50.2596 94.3994 77.0009 94.3994 103.749 94.3994C103.749 94.7023 103.749 95.004 103.749 95.309C77.0009 95.309 50.2596 95.309 23.5183 95.309Z" fill="white"/>
<path fill-rule="evenodd" clip-rule="evenodd" d="M23.5183 97.6702C23.5183 97.4015 23.5183 97.1328 23.5183 96.8662C50.2596 96.8662 77.0009 96.8662 103.749 96.8662C103.749 97.1328 103.749 97.4015 103.749 97.6702C77.0009 97.6702 50.2596 97.6702 23.5183 97.6702Z" fill="white"/>
<path fill-rule="evenodd" clip-rule="evenodd" d="M23.5183 100.121C23.5183 99.8889 23.5183 99.6563 23.5183 99.4229C50.2596 99.4229 77.0009 99.4229 103.749 99.4229C103.749 99.6563 103.749 99.8889 103.749 100.121C77.0009 100.121 50.2596 100.121 23.5183 100.121Z" fill="white"/>
<path fill-rule="evenodd" clip-rule="evenodd" d="M23.5183 102.67C23.5183 102.473 23.5183 102.277 23.5183 102.084C50.2596 102.084 77.0009 102.084 103.749 102.084C103.749 102.277 103.749 102.473 103.749 102.67C77.0009 102.67 50.2596 102.67 23.5183 102.67Z" fill="white"/>
<path fill-rule="evenodd" clip-rule="evenodd" d="M23.5183 105.324C23.5183 105.163 23.5183 105.007 23.5183 104.847C50.2596 104.847 77.0009 104.847 103.749 104.847C103.749 105.007 103.749 105.163 103.749 105.324C77.0009 105.324 50.2596 105.324 23.5183 105.324Z" fill="white"/>
<path d="M103.749 107.727H23.5183V108.095H103.749V107.727Z" fill="white"/>
<path d="M100.331 74.8952H97.7977V71.096C97.7977 70.4804 97.7845 69.9527 97.7581 69.513C97.7405 69.0645 97.6658 68.6819 97.5338 68.3653C97.4106 68.0487 97.2127 67.7937 96.94 67.6002C96.6673 67.4067 96.2802 67.2572 95.7788 67.1517C95.2774 67.0461 94.6396 66.9758 93.8655 66.9406C93.1001 66.8966 92.1544 66.8746 91.0284 66.8746H79.6407V74.8952H77.1072V54.6328H91.4507C92.9989 54.6328 94.3009 54.69 95.3565 54.8043C96.421 54.9098 97.2963 55.0725 97.9824 55.2924C98.6774 55.5123 99.2096 55.7849 99.5791 56.1103C99.9574 56.4357 100.23 56.8182 100.397 57.2579C100.573 57.6977 100.674 58.1902 100.701 58.7354C100.736 59.2807 100.754 59.8831 100.754 60.5427C100.754 61.3869 100.692 62.1301 100.569 62.772C100.454 63.4052 100.256 63.9461 99.975 64.3946C99.6935 64.8431 99.3196 65.2037 98.8533 65.4763C98.3871 65.7402 97.8021 65.9248 97.0983 66.0304C97.8021 66.1359 98.3651 66.3206 98.7874 66.5844C99.2096 66.8483 99.5351 67.1912 99.7638 67.6134C99.9926 68.0355 100.142 68.5368 100.212 69.1172C100.292 69.6977 100.331 70.3572 100.331 71.096V74.8952ZM79.6407 64.764H91.4507C92.5767 64.764 93.5224 64.7464 94.2877 64.7112C95.0618 64.6672 95.6996 64.5925 96.2011 64.487C96.7025 64.3814 97.0896 64.2319 97.3623 64.0384C97.635 63.845 97.8329 63.5899 97.9561 63.2733C98.088 62.9567 98.1628 62.5786 98.1804 62.1389C98.2068 61.6903 98.22 61.1583 98.22 60.5427C98.22 59.971 98.2068 59.4785 98.1804 59.0652C98.1628 58.6519 98.088 58.3045 97.9561 58.0231C97.8329 57.7416 97.635 57.5174 97.3623 57.3503C97.0896 57.1832 96.7025 57.0557 96.2011 56.9677C95.6996 56.871 95.0618 56.8094 94.2877 56.783C93.5224 56.7567 92.5767 56.7435 91.4507 56.7435H79.6407V64.764Z" fill="black"/>
<path d="M65.6117 54.3555C67.1599 54.3555 68.4619 54.4522 69.5175 54.6457C70.582 54.8304 71.4573 55.1162 72.1434 55.5031C72.8296 55.8813 73.3574 56.3606 73.7269 56.941C74.0964 57.5215 74.3647 58.203 74.5318 58.9857C74.7078 59.7684 74.8089 60.6523 74.8353 61.6373C74.8705 62.6222 74.8881 63.7127 74.8881 64.9088C74.8881 66.1048 74.8705 67.1953 74.8353 68.1803C74.8089 69.1653 74.7078 70.0491 74.5318 70.8318C74.3647 71.6145 74.0964 72.2961 73.7269 72.8765C73.3574 73.457 72.8296 73.9406 72.1434 74.3276C71.4573 74.7058 70.582 74.9872 69.5175 75.1719C68.4619 75.3653 67.1599 75.4621 65.6117 75.4621H57.9847C56.4364 75.4621 55.1301 75.3653 54.0656 75.1719C53.01 74.9872 52.1391 74.7058 51.4529 74.3276C50.7667 73.9406 50.2345 73.457 49.8563 72.8765C49.4868 72.2961 49.2141 71.6145 49.0381 70.8318C48.871 70.0491 48.7742 69.1653 48.7478 68.1803C48.7214 67.1953 48.7083 66.1048 48.7083 64.9088C48.7083 63.7127 48.7214 62.6222 48.7478 61.6373C48.7742 60.6523 48.871 59.7684 49.0381 58.9857C49.2141 58.203 49.4868 57.5215 49.8563 56.941C50.2345 56.3606 50.7667 55.8813 51.4529 55.5031C52.1391 55.1162 53.01 54.8304 54.0656 54.6457C55.1301 54.4522 56.4364 54.3555 57.9847 54.3555H65.6117ZM65.6117 73.3514C66.7289 73.3514 67.6702 73.3206 68.4355 73.2591C69.2096 73.1887 69.8474 73.0524 70.3489 72.8501C70.8503 72.6479 71.2374 72.3577 71.5101 71.9795C71.7828 71.6013 71.9807 71.1 72.1039 70.4756C72.227 69.8512 72.2974 69.0861 72.315 68.1803C72.3414 67.2657 72.3546 66.1752 72.3546 64.9088C72.3546 63.6424 72.3414 62.5563 72.315 61.6504C72.2974 60.7358 72.227 59.9663 72.1039 59.3419C71.9807 58.7175 71.7828 58.2162 71.5101 57.8381C71.2374 57.4599 70.8503 57.1697 70.3489 56.9674C69.8562 56.7651 69.2228 56.6332 68.4487 56.5717C67.6834 56.5013 66.7377 56.4661 65.6117 56.4661H57.9847C56.8587 56.4661 55.9086 56.5013 55.1345 56.5717C54.3691 56.6332 53.7357 56.7651 53.2343 56.9674C52.7329 57.1697 52.3458 57.4599 52.0731 57.8381C51.8004 58.2162 51.6025 58.7175 51.4793 59.3419C51.3561 59.9663 51.2858 60.7358 51.2682 61.6504C51.2506 62.5563 51.2418 63.6424 51.2418 64.9088C51.2418 66.1752 51.2506 67.2657 51.2682 68.1803C51.2946 69.0861 51.3693 69.8512 51.4925 70.4756C51.6157 71.1 51.8092 71.6013 52.0731 71.9795C52.3458 72.3577 52.7329 72.6479 53.2343 72.8501C53.7357 73.0524 54.3691 73.1887 55.1345 73.2591C55.9086 73.3206 56.8587 73.3514 57.9847 73.3514H65.6117Z" fill="black"/>
<path d="M27.0652 74.8952V54.6328H46.489V56.7435H29.5987V63.4976H45.6444V65.6082H29.5987V74.8952H27.0652Z" fill="black"/>
<path fill-rule="evenodd" clip-rule="evenodd" d="M107.215 51.0236L105.871 52.0942V51.0236H107.215ZM112.338 51.0236H109.946L105.871 54.2706V56.1782L112.338 51.0236ZM117.459 51.0236H115.066L105.871 58.3514V60.258L117.459 51.0236ZM122.576 51.0236H120.186L105.871 62.4344V64.3357L122.576 51.0236ZM127.701 51.0236H125.307L105.871 66.5119V68.4196L127.701 51.0236ZM132.818 51.0236H130.428L105.871 70.5928V72.4972L132.818 51.0236ZM137.938 51.0236H135.553L105.871 74.6768V76.5782L137.938 51.0236ZM143.062 51.0236H140.668L105.871 78.7544V80.661L143.062 51.0236ZM148.179 51.0236H145.789L105.871 82.8342V84.7386L148.179 51.0236ZM153.3 51.0236H150.914L105.871 86.9182V88.8196L153.3 51.0236ZM158.42 51.0236H156.035L105.871 90.9991V92.9004L158.42 51.0236ZM163.54 51.0236H161.152L105.871 95.0766V96.98L163.54 51.0236ZM168.661 51.0236H166.271L105.871 99.1564V101.061L168.661 51.0236ZM173.782 51.0236H171.392L105.871 103.237V105.142L173.782 51.0236ZM178.906 51.0236H176.513L105.871 107.318V108.433H106.865L178.906 51.0236ZM184.022 51.0236L111.982 108.433H109.588L181.629 51.0234L184.022 51.0236ZM189.143 51.0236L117.103 108.433H114.713L186.753 51.0236H189.143ZM194.264 51.0236L122.224 108.433H119.83L191.87 51.0236H194.264ZM199.385 51.0236L127.343 108.433H124.955L196.995 51.0236H199.385ZM204.501 51.0236L132.46 108.433H130.074L202.115 51.0236H204.501ZM209.625 51.0236L137.585 108.433H135.195L207.235 51.0236H209.625ZM214.746 51.0236L142.706 108.433H140.312L212.352 51.0236H214.746ZM219.862 51.0236L147.823 108.433H145.44L217.481 51.0236H219.862ZM224.987 51.0236L152.946 108.433H150.557L222.598 51.0236H224.987ZM230.107 51.0236L158.067 108.433H155.677L227.718 51.0236H230.107ZM235.224 51.0236L163.184 108.433H160.798L232.838 51.0236H235.224ZM240.349 51.0236L168.305 108.433H165.919L237.959 51.0236H240.349ZM245.469 51.0236L173.428 108.433H171.036L243.076 51.0236H245.469ZM248.075 53.0251L178.549 108.433H176.155L248.075 51.1207V53.0251ZM248.075 57.109V55.2014L181.276 108.433H183.67L248.075 57.109ZM248.075 61.1868V59.2823L186.397 108.433H188.791L248.075 61.1868ZM248.075 65.2665V63.3621L191.522 108.433H193.908L248.075 65.2665ZM248.075 69.3473V67.4429L196.641 108.433H199.031L248.075 69.3473ZM248.075 73.4282V71.5237L201.758 108.433H204.152L248.075 73.4282ZM248.075 77.509V75.6045L206.879 108.433H209.269L248.075 77.509ZM248.075 81.5866V79.6852L212.004 108.433H214.39L248.075 81.5866ZM248.075 85.6726V83.765L217.123 108.433H219.513L248.075 85.6726ZM248.075 89.7504V87.8459L222.24 108.433H224.63L248.075 89.7504ZM248.075 93.8279V91.9266L227.365 108.433H229.751L248.075 93.8279ZM248.075 97.9109V96.0076L232.482 108.433H234.876L248.075 97.9109ZM248.075 101.992V100.085L237.603 108.433H239.995L248.075 101.992ZM248.075 106.073V104.168L242.726 108.433H245.112L248.075 106.073ZM248.075 108.433V108.249L247.843 108.433H248.075Z" fill="#7C7C7C"/>
<path fill-rule="evenodd" clip-rule="evenodd" d="M245.563 51.0236L244.22 52.0942V51.0236H245.563ZM250.687 51.0236H248.294L244.22 54.2706V56.1782L250.687 51.0236ZM255.808 51.0236H253.415L244.22 58.3514V60.258L255.808 51.0236ZM260.925 51.0236H258.535L244.22 62.4344V64.3357L260.925 51.0236ZM266.049 51.0236H263.655L244.22 66.5119V68.4196L266.049 51.0236ZM271.166 51.0236H268.776L244.22 70.5928V72.4972L271.166 51.0236ZM276.287 51.0236H273.901L244.22 74.6768V76.5782L276.287 51.0236ZM281.41 51.0236H279.017L244.22 78.7544V80.661L281.41 51.0236ZM286.527 51.0236H284.138L244.22 82.8342V84.7386L286.527 51.0236ZM291.648 51.0236H289.262L244.22 86.9182V88.8196L291.648 51.0236ZM296.769 51.0236H294.383L244.22 90.9991V92.9004L296.769 51.0236ZM301.889 51.0236H299.5L244.22 95.0766V96.98L301.889 51.0236ZM307.009 51.0236H304.62L244.22 99.1564V101.061L307.009 51.0236ZM312.13 51.0236H309.741L244.22 103.237V105.142L312.13 51.0236ZM317.255 51.0236H314.861L244.22 107.318V108.433H245.214L317.255 51.0236ZM322.371 51.0236L250.331 108.433H247.937L319.978 51.0234L322.371 51.0236ZM327.491 51.0236L255.452 108.433H253.062L325.102 51.0236H327.491ZM332.612 51.0236L260.573 108.433H258.179L330.218 51.0236H332.612ZM337.733 51.0236L265.692 108.433H263.304L335.343 51.0236H337.733ZM342.85 51.0236L270.809 108.433H268.423L340.464 51.0236H342.85ZM347.973 51.0236L275.934 108.433H273.544L345.584 51.0236H347.973ZM353.094 51.0236L281.055 108.433H278.661L350.7 51.0236H353.094ZM358.211 51.0236L286.171 108.433H283.788L355.829 51.0236H358.211ZM363.336 51.0236L291.295 108.433H288.905L360.946 51.0236H363.336ZM368.456 51.0236L296.416 108.433H294.026L366.067 51.0236H368.456ZM373.572 51.0236L301.533 108.433H299.147L371.186 51.0236H373.572ZM378.697 51.0236L306.654 108.433H304.268L376.307 51.0236H378.697ZM383.818 51.0236L311.777 108.433H309.384L381.424 51.0236H383.818ZM386.423 53.0251L316.898 108.433H314.504L386.423 51.1207V53.0251ZM386.423 57.109V55.2014L319.625 108.433H322.019L386.423 57.109ZM386.423 61.1868V59.2823L324.746 108.433H327.14L386.423 61.1868ZM386.423 65.2665V63.3621L329.871 108.433H332.256L386.423 65.2665ZM386.423 69.3473V67.4429L334.99 108.433H337.38L386.423 69.3473ZM386.423 73.4282V71.5237L340.107 108.433H342.501L386.423 73.4282ZM386.423 77.509V75.6045L345.228 108.433H347.617L386.423 77.509ZM386.423 81.5866V79.6852L350.353 108.433H352.739L386.423 81.5866ZM386.423 85.6726V83.765L355.472 108.433H357.862L386.423 85.6726ZM386.423 89.7504V87.8459L360.589 108.433H362.979L386.423 89.7504ZM386.423 93.8279V91.9266L365.714 108.433H368.099L386.423 93.8279ZM386.423 97.9109V96.0076L370.831 108.433H373.224L386.423 97.9109ZM386.423 101.992V100.085L375.951 108.433H378.344L386.423 101.992ZM386.423 106.073V104.168L381.075 108.433H383.461L386.423 106.073ZM386.423 108.433V108.249L386.192 108.433H386.423Z" fill="#7C7C7C"/>
<path d="M345.005 104.425L339.046 55.1875H348.289L351.207 83.879L354.916 55.2483H362.152L366.044 83.6966L369.023 55.1875H378.144L372.246 104.425H362.76L358.565 74.7001L354.612 104.425H345.005Z" fill="white"/>
<path d="M321.93 104.991C318.241 104.991 315.322 104.343 313.174 103.046C311.026 101.749 309.485 99.885 308.553 97.4535C307.62 95.022 307.154 92.1245 307.154 88.7609V70.464C307.154 67.06 307.62 64.1624 308.553 61.7715C309.485 59.3805 311.026 57.5569 313.174 56.3007C315.322 55.0039 318.241 54.3555 321.93 54.3555C325.659 54.3555 328.598 55.0039 330.747 56.3007C332.936 57.5569 334.496 59.3805 335.429 61.7715C336.361 64.1624 336.827 67.06 336.827 70.464V88.7609C336.827 92.1245 336.361 95.022 335.429 97.4535C334.496 99.885 332.936 101.749 330.747 103.046C328.598 104.343 325.659 104.991 321.93 104.991ZM321.93 97.2711C323.065 97.2711 323.896 96.9874 324.423 96.4201C324.95 95.8528 325.294 95.1233 325.457 94.2318C325.619 93.3402 325.7 92.4284 325.7 91.4964V67.7894C325.7 66.8168 325.619 65.905 325.457 65.054C325.294 64.1624 324.95 63.433 324.423 62.8657C323.896 62.2983 323.065 62.0146 321.93 62.0146C320.876 62.0146 320.085 62.2983 319.558 62.8657C319.031 63.433 318.687 64.1624 318.525 65.054C318.363 65.905 318.282 66.8168 318.282 67.7894V91.4964C318.282 92.4284 318.342 93.3402 318.464 94.2318C318.626 95.1233 318.95 95.8528 319.437 96.4201C319.964 96.9874 320.795 97.2711 321.93 97.2711Z" fill="white"/>
<path d="M274.29 104.425V55.1875H287.849C291.173 55.1875 294.051 55.5522 296.483 56.2817C298.916 57.0111 300.8 58.3282 302.138 60.2328C303.516 62.097 304.206 64.7513 304.206 68.1959C304.206 70.2222 304.043 72.0255 303.719 73.606C303.395 75.1864 302.787 76.5643 301.895 77.7395C301.044 78.8742 299.807 79.8265 298.186 80.5965L304.935 104.425H293.686L288.275 82.3593H285.174V104.425H274.29ZM285.174 76.0982H288.214C289.754 76.0982 290.95 75.8348 291.801 75.308C292.653 74.7407 293.24 73.9504 293.565 72.9373C293.93 71.8837 294.112 70.6274 294.112 69.1685C294.112 67.0612 293.727 65.42 292.957 64.2448C292.186 63.0696 290.768 62.4819 288.7 62.4819H285.174V76.0982Z" fill="white"/>
<path d="M241.425 104.425V55.1875H254.984C258.308 55.1875 261.186 55.5522 263.619 56.2817C266.051 57.0111 267.936 58.3282 269.273 60.2328C270.652 62.097 271.341 64.7513 271.341 68.1959C271.341 70.2222 271.179 72.0255 270.854 73.606C270.53 75.1864 269.922 76.5643 269.03 77.7395C268.179 78.8742 266.943 79.8265 265.321 80.5965L272.07 104.425H260.822L255.41 82.3593H252.309V104.425H241.425ZM252.309 76.0982H255.349C256.89 76.0982 258.085 75.8348 258.937 75.308C259.788 74.7407 260.376 73.9504 260.7 72.9373C261.065 71.8837 261.247 70.6274 261.247 69.1685C261.247 67.0612 260.862 65.42 260.092 64.2448C259.322 63.0696 257.903 62.4819 255.836 62.4819H252.309V76.0982Z" fill="white"/>
<path d="M224.308 104.991C220.619 104.991 217.701 104.343 215.552 103.046C213.404 101.749 211.864 99.885 210.931 97.4535C209.999 95.022 209.533 92.1245 209.533 88.7609V70.464C209.533 67.06 209.999 64.1624 210.931 61.7715C211.864 59.3805 213.404 57.5569 215.552 56.3007C217.701 55.0039 220.619 54.3555 224.308 54.3555C228.038 54.3555 230.977 55.0039 233.125 56.3007C235.314 57.5569 236.875 59.3805 237.807 61.7715C238.739 64.1624 239.205 67.06 239.205 70.464V88.7609C239.205 92.1245 238.739 95.022 237.807 97.4535C236.875 99.885 235.314 101.749 233.125 103.046C230.977 104.343 228.038 104.991 224.308 104.991ZM224.308 97.2711C225.443 97.2711 226.274 96.9874 226.801 96.4201C227.328 95.8528 227.673 95.1233 227.835 94.2318C227.997 93.3402 228.078 92.4284 228.078 91.4964V67.7894C228.078 66.8168 227.997 65.905 227.835 65.054C227.673 64.1624 227.328 63.433 226.801 62.8657C226.274 62.2983 225.443 62.0146 224.308 62.0146C223.254 62.0146 222.464 62.2983 221.937 62.8657C221.41 63.433 221.065 64.1624 220.903 65.054C220.741 65.905 220.66 66.8168 220.66 67.7894V91.4964C220.66 92.4284 220.721 93.3402 220.842 94.2318C221.005 95.1233 221.329 95.8528 221.815 96.4201C222.342 96.9874 223.173 97.2711 224.308 97.2711Z" fill="white"/>
<path d="M171.438 104.425L172.29 55.1875H183.964L189.376 83.8182L195.213 55.1875H206.462L207.313 104.425H199.591L198.679 71.6608L192.963 104.425H186.092L180.012 71.4176L179.282 104.425H171.438Z" fill="white"/>
<path d="M154.322 104.991C150.633 104.991 147.715 104.343 145.566 103.046C143.418 101.749 141.877 99.885 140.945 97.4535C140.013 95.022 139.547 92.1245 139.547 88.7609V70.464C139.547 67.06 140.013 64.1624 140.945 61.7715C141.877 59.3805 143.418 57.5569 145.566 56.3007C147.715 55.0039 150.633 54.3555 154.322 54.3555C158.052 54.3555 160.99 55.0039 163.139 56.3007C165.328 57.5569 166.889 59.3805 167.821 61.7715C168.753 64.1624 169.219 67.06 169.219 70.464V88.7609C169.219 92.1245 168.753 95.022 167.821 97.4535C166.889 99.885 165.328 101.749 163.139 103.046C160.99 104.343 158.052 104.991 154.322 104.991ZM154.322 97.2711C155.457 97.2711 156.288 96.9874 156.815 96.4201C157.342 95.8528 157.687 95.1233 157.849 94.2318C158.011 93.3402 158.092 92.4284 158.092 91.4964V67.7894C158.092 66.8168 158.011 65.905 157.849 65.054C157.687 64.1624 157.342 63.433 156.815 62.8657C156.288 62.2983 155.457 62.0146 154.322 62.0146C153.268 62.0146 152.478 62.2983 151.951 62.8657C151.424 63.433 151.079 64.1624 150.917 65.054C150.755 65.905 150.674 66.8168 150.674 67.7894V91.4964C150.674 92.4284 150.735 93.3402 150.856 94.2318C151.018 95.1233 151.343 95.8528 151.829 96.4201C152.356 96.9874 153.187 97.2711 154.322 97.2711Z" fill="white"/>
<path d="M119.025 104.425V63.2722H111.607V55.1875H137.327V63.2722H129.97V104.425H119.025Z" fill="white"/>
</svg>